<svg width="20" height="20" viewBox="0 0 20 20" fill="none" xmlns="http://www.w3.org/2000/svg">
  <path d="M17.8125 17.04C18.3303 17.04 18.75 17.4598 18.75 17.9775C18.75 18.4953 18.3303 18.915 17.8125 18.915H2.1875C1.66973 18.915 1.25 18.4953 1.25 17.9775C1.25001 17.4598 1.66974 17.04 2.1875 17.04H17.8125ZM9.99902 15.75C9.44752 15.7497 8.99933 15.3015 8.99902 14.75V5.24707L6.70703 7.53906C6.51253 7.7349 6.25578 7.83383 6 7.83398C5.74418 7.83398 5.48757 7.73445 5.29297 7.54004C4.90269 7.14947 4.9027 6.5175 5.29297 6.12695L9.29297 2.12695C9.38484 2.03516 9.49576 1.96166 9.61816 1.91113C9.86194 1.81002 10.1381 1.81003 10.3818 1.91113C10.5043 1.96178 10.6152 2.03521 10.707 2.12695L14.707 6.12695C15.097 6.5175 15.097 7.15049 14.707 7.54102C14.3164 7.93141 13.6826 7.9314 13.292 7.54102L11 5.24805V14.75C10.9997 15.3015 10.5506 15.7497 9.99902 15.75Z" fill="currentColor"/>
</svg>
