<svg width="24" height="24" viewBox="0 0 24 24" fill="none" xmlns="http://www.w3.org/2000/svg">
<path d="M8.5 14.5A2.5 2.5 0 0 0 11 12C11 10.62 10.5 10 10 9C8.92802 6.85714 9.77596 4.05357 12 2C12.5 4.5 14 6.9 16 8.5C18 10.1 19 12 19 14C19 15.8565 18.2625 17.637 16.9497 18.9497C15.637 20.2625 13.8565 21 12 21C10.1435 21 8.36301 20.2625 7.05025 18.9497C5.7375 17.637 5 15.8565 5 14C5 12.847 5.43299 11.7056 6 11C6 12.3807 7.11929 14.5 8.5 14.5Z" stroke="currentColor" stroke-width="2" stroke-linecap="round" stroke-linejoin="round"/>
</svg>
